<?xml version="1.0" standalone="no"?>
<svg viewBox="0 0 200 200" xmlns="http://www.w3.org/2000/svg">
  <path fill="#A29BFE" d="M18.9,-28C32.8,-24.6,58.2,-36.4,73.5,-34.3C88.7,-32.2,93.9,-16.1,90.6,-1.9C87.2,12.2,75.4,24.5,62.3,30.4C49.2,36.4,34.9,36.1,24.3,42.8C13.8,49.5,6.9,63.3,-3.4,69.1C-13.6,74.9,-27.2,72.8,-35.3,64.6C-43.5,56.5,-46.2,42.3,-49.3,30.6C-52.4,18.8,-56,9.4,-61.3,-3.1C-66.7,-15.6,-73.9,-31.2,-65.3,-33.6C-56.8,-36,-32.5,-25.2,-19,-28.8C-5.5,-32.4,-2.8,-50.4,-0.1,-50.1C2.5,-49.8,4.9,-31.3,18.9,-28Z" transform="translate(100 100)" />
</svg>
